<svg id="effect" height="512" viewBox="0 0 36 36" width="512" xmlns="http://www.w3.org/2000/svg"><path d="m8.377 4.167c6.917 0 11.667-3.583 15-3.583s10.333 1.916 10.333 17.249-9.417 17.583-13.083 17.583c-17.167.001-24.5-31.249-12.25-31.249z" fill="#efefef"/><path d="m11.5 16.371c-.118-2.266.652-6.498 4.206-9.694.416-.374 1.068-.125 1.155.437.839 5.378 6.904 7.807 4.437 14.523-1.512 4.117-6.628 6.086-10.539 4.061-3.019-1.563-4.61-4.603-4.197-7.987.2-1.637.66-3.344 1.925-4.38.38-.311.955-.101 1.102.376.382 1.245.947 1.963 1.911 2.664z" fill="#f3f3f1"/><path d="m24 29.5s5.5-2.321 5.5-6.964c0-1.857 0-4.179 0-4.179l-5.5-1.857-5.5 1.857v4.179c0 4.643 5.5 6.964 5.5 6.964z" fill="#2fdf84"/><path d="m15.1 26.43c-1.46.19-2.97-.02-4.34-.73-3.02-1.57-4.61-4.61-4.2-7.99.2-1.64.66-3.34 1.93-4.38.38-.31.95-.1 1.1.38.05.15.1.3.15.44-.72 1-1.03 2.3-1.18 3.56-.41 3.38 1.18 6.42 4.2 7.99.75.39 1.54.63 2.34.73z" fill="#d5dbe1"/><path d="m25 28.98c-.59.35-1 .52-1 .52s-5.5-2.32-5.5-6.96c0-2.79 0-4.18 0-4.18l5.5-1.86 1 .34-4.5 1.52v4.18c0 3.38 2.92 5.53 4.5 6.44z" fill="#00b871"/><path d="m13.908 27.247c-1.261 0-2.505-.298-3.609-.885-3.202-1.709-4.919-5.059-4.484-8.74.179-1.464.595-3.558 2.142-4.865.358-.3.838-.397 1.288-.263.476.145.845.521.985 1.006.13.424.277.773.466 1.084.303-2.633 1.524-5.926 4.277-8.456.372-.355.916-.473 1.41-.302.514.18.882.636.96 1.189.288 1.9 1.284 3.411 2.34 5.011.461.699.938 1.422 1.347 2.176l-1.318.715c-.378-.697-.816-1.361-1.28-2.064-1.081-1.638-2.198-3.331-2.556-5.515-2.968 2.807-3.874 6.584-3.746 8.992.016.291-.139.563-.395.701-.257.139-.569.115-.803-.06-1.092-.813-1.709-1.678-2.118-2.971-.804.745-1.285 1.959-1.511 3.801-.366 3.099 1.018 5.805 3.7 7.238 1.501.797 3.33.931 5.017.36l.479 1.422c-.846.285-1.723.426-2.591.426zm2.089-20.024c0 .001 0 .001 0 0z"/><path d="m24 30.25c-.1 0-.198-.02-.292-.059-.243-.104-5.958-2.573-5.958-7.655v-4.179c0-.321.205-.607.51-.711l5.5-1.857c.156-.053.324-.053.48 0l5.5 1.857c.305.104.51.39.51.711v4.179c0 5.082-5.715 7.552-5.958 7.655-.094.039-.192.059-.292.059zm-4.75-11.354v3.641c0 3.516 3.673 5.6 4.749 6.135 1.075-.537 4.751-2.633 4.751-6.135v-3.641l-4.75-1.604z"/><path d="m23.5 25.25c-.014 0-.027 0-.041-.001-.214-.012-.411-.114-.545-.28l-2-2.5 1.172-.938 1.477 1.846 2.907-2.907 1.061 1.061-3.5 3.5c-.141.14-.333.219-.531.219z"/><path d="m8.412 7.998c-.827 0-1.5-.673-1.5-1.5s.673-1.5 1.5-1.5 1.5.673 1.5 1.5-.673 1.5-1.5 1.5zm0-2c-.275 0-.5.225-.5.5s.225.5.5.5.5-.225.5-.5-.224-.5-.5-.5z" fill="#a4afc1"/></svg>