<svg id="line" enable-background="new 0 0 36 36" height="512" viewBox="0 0 36 36" width="512" xmlns="http://www.w3.org/2000/svg"><g><path d="m4.167 8.377c0 6.917-3.583 11.667-3.583 15s1.916 10.333 17.249 10.333 17.583-9.417 17.583-13.083c.001-17.167-31.249-24.5-31.249-12.25z" fill="#efefef"/></g><g><g><path d="m24.467.967h1v2h-1z" fill="#a4afc1" transform="matrix(.707 -.707 .707 .707 5.919 18.227)"/></g><g><path d="m28.533 5.033h1v2h-1z" fill="#a4afc1" transform="matrix(.707 -.707 .707 .707 4.235 22.292)"/></g><g><path d="m27.856 1.467h2v1h-2z" fill="#a4afc1" transform="matrix(.707 -.707 .707 .707 7.061 20.981)"/></g></g><g><path d="m15.75 25.5c-.02 1.07-.58 2.07-1.5 2.62v1.13h-7.5v-4.63c0-1.57.62-3.08 1.72-4.2l1.88-1.92z" fill="#2fdf84"/></g><g><path d="m25.65 18.5 1.88 1.92c1.1 1.12 1.72 2.63 1.72 4.2v4.63h-7.5v-1.13c-.92-.55-1.48-1.55-1.5-2.62z" fill="#2fdf84"/></g><g><path d="m25.25 24.32v-16.57c0-.552-.448-1-1-1h-12.5c-.552 0-1 .448-1 1v16.57c0 .552.448 1 1 1h12.5c.552 0 1-.448 1-1z" fill="#f3f3f1"/></g><g><path d="m13.98 20.49c0-.21-.05-.43-.15-.63-.21-.39-.75-.48-1.07-.17l-6.01 5.65v3.66h2.62l2.4-2c.45-.43.68-1.01.68-1.58s-.23-1.15-.68-1.59l1.92-2.47c.19-.25.29-.56.29-.87z" fill="#2fdf84"/></g><g><path d="m23.24 19.69c-.32-.31-.86-.22-1.07.17-.1.2-.15.42-.15.63 0 .31.1.62.29.87l1.92 2.47c-.45.44-.68 1.02-.68 1.59s.23 1.15.68 1.58l1.83 2h3.19v-3.66z" fill="#2fdf84"/></g><g><path d="m24 28.12v1.13h-2.25v-1.13c-.92-.55-1.48-1.55-1.5-2.62l.14-.18h2.25l-.14.18c.02 1.07.58 2.07 1.5 2.62z" fill="#00b871"/></g><g><path d="m13 19.82v-12.07c0-.552.448-1 1-1h-2.25c-.552 0-1 .448-1 1v14.07z" fill="#d5dbe1"/></g><g><path d="m13.83 19.86c-.21-.39-.75-.48-1.07-.17l-2.04 1.73.622-1.635-.992-1.285-1.88 1.92c-1.1 1.12-1.72 2.63-1.72 4.2v4.63h2.25v-3.91l4.948-4.652c.009-.067.032-.131.032-.198 0-.21-.05-.43-.15-.63z" fill="#00b871"/></g><g><path d="m25.8 25.42c0-.358.091-.721.27-1.049.2-.368.2-.81-.056-1.14l-1.454-1.87c-.149-.196-.224-.431-.258-.672l-1.062-.999c-.32-.31-.86-.22-1.07.17-.1.2-.15.42-.15.63 0 .31.1.62.29.87l1.92 2.47c-.45.44-.68 1.02-.68 1.59s.23 1.15.68 1.58l1.83 2h2.25l-1.83-2c-.45-.43-.68-1.01-.68-1.58z" fill="#00b871"/></g><g><path d="m12.5 24.5h10.917v1.5h-10.917z"/></g><g><path d="m26 21.82h-1.5v-14.07c0-.138-.112-.25-.25-.25h-12.5c-.138 0-.25.112-.25.25v14.07h-1.5v-14.07c0-.965.785-1.75 1.75-1.75h12.5c.965 0 1.75.785 1.75 1.75z"/></g><g><path d="m12.288 27.794-1.041-1.08c.292-.282.453-.654.453-1.048 0-.395-.161-.767-.453-1.048-.276-.266-.307-.698-.071-1l1.919-2.467c.135-.173.173-.392.109-.593l-3.387 3.266-1.041-1.08 3.466-3.342c.322-.31.779-.453 1.224-.378.447.073.821.343 1.027.739.385.743.3 1.649-.215 2.31l-1.552 1.995c.309.474.474 1.023.474 1.598 0 .805-.324 1.561-.912 2.128z"/></g><g><path d="m14.25 30h-7.5c-.414 0-.75-.336-.75-.75v-4.63c0-1.776.688-3.455 1.935-4.726l2.404-2.455 1.071 1.049-2.404 2.456c-.972.99-1.506 2.295-1.506 3.676v3.88h6v-.38c0-.264.139-.508.365-.644.685-.41 1.12-1.172 1.135-1.99l.014-.75 1.5.027-.014.75c-.021 1.181-.587 2.294-1.5 3.001v.735c0 .415-.336.751-.75.751z"/></g><g><path d="m23.712 27.794c-.588-.567-.912-1.323-.912-2.129 0-.575.165-1.125.474-1.598l-1.552-1.996c-.515-.66-.6-1.566-.215-2.308.206-.397.58-.667 1.027-.74.444-.075.901.068 1.223.378l3.467 3.342-1.041 1.08-3.387-3.266c-.063.201-.025.419.109.592l1.919 2.468c.235.303.205.734-.071 1-.292.281-.453.653-.453 1.048 0 .394.161.767.453 1.048z"/></g><g><path d="m29.25 30h-7.5c-.414 0-.75-.336-.75-.75v-.735c-.913-.707-1.479-1.82-1.5-3.001l-.014-.75 1.5-.027.014.749c.015.818.45 1.58 1.135 1.99.227.135.365.38.365.644v.38h6v-3.88c0-1.381-.534-2.686-1.505-3.675l-2.405-2.457 1.071-1.049 2.405 2.456c1.247 1.27 1.934 2.949 1.934 4.725v4.63c0 .414-.336.75-.75.75z"/></g><g><path d="m14.238 16.819-.977-1.139 3.5-3c.256-.218.624-.242.904-.055l.988.659 3.065-3.065 1.061 1.061-3.5 3.5c-.252.253-.649.292-.946.094l-1.027-.685z"/></g><g><path d="m23 14h-1.5v-2.5h-2.5v-1.5h3.25c.414 0 .75.336.75.75z"/></g><g><path d="m2 28.5h32v1.5h-32z"/></g></svg>