<svg id="_x31_px" height="512" viewBox="0 0 36 36" width="512" xmlns="http://www.w3.org/2000/svg"><path d="m31.833 8.377c0 6.917 3.583 11.667 3.583 15s-1.916 10.333-17.249 10.333-17.584-9.417-17.584-13.083c0-17.167 31.25-24.5 31.25-12.25z" fill="#efefef"/><path d="m4.29 5.47c-.827 0-1.5-.673-1.5-1.5s.673-1.5 1.5-1.5 1.5.673 1.5 1.5-.673 1.5-1.5 1.5zm0-2c-.276 0-.5.225-.5.5s.224.5.5.5.5-.225.5-.5-.224-.5-.5-.5z" fill="#a4afc1"/><path d="m11.5 29.5h-4c-.552 0-1-.448-1-1v-15c0-.552.448-1 1-1h4c.552 0 1 .448 1 1v15c0 .552-.448 1-1 1z" fill="#f3f3f1"/><path d="m17.5 29.5h-4c-.552 0-1-.448-1-1v-21c0-.552.448-1 1-1h4c.552 0 1 .448 1 1v21c0 .552-.448 1-1 1z" fill="#f3f3f1"/><path d="m6.5 22.5h6v3h-6z" fill="#2fdf84"/><path d="m23.5 29.5h-4c-.552 0-1-.448-1-1v-15c0-.552.448-1 1-1h4c.552 0 1 .448 1 1v15c0 .552-.448 1-1 1z" fill="#f3f3f1"/><path d="m18.5 22.5h6v3h-6z" fill="#2fdf84"/><path d="m29.5 7.5v9l-3.5-3-3.5 3v-9c0-.552.448-1 1-1h5c.552 0 1 .448 1 1z" fill="#2fdf84"/><path d="m24.5 7.5c0-.552.448-1 1-1h-2c-.552 0-1 .448-1 1v9l2-1.714z" fill="#00b871"/><g fill="#d5dbe1"><path d="m20.5 28.5v-15c0-.552.448-1 1-1h-2c-.552 0-1 .448-1 1v15c0 .552.448 1 1 1h2c-.552 0-1-.448-1-1z"/><path d="m8.5 28.5v-15c0-.552.448-1 1-1h-2c-.552 0-1 .448-1 1v15c0 .552.448 1 1 1h2c-.552 0-1-.448-1-1z"/><path d="m14.5 28.5v-21c0-.552.448-1 1-1h-2c-.552 0-1 .448-1 1v21c0 .552.448 1 1 1h2c-.552 0-1-.448-1-1z"/></g><path d="m6.5 22.5h2v3h-2z" fill="#00b871"/><path d="m18.5 22.5h2v3h-2z" fill="#00b871"/><path d="m29.5 17c-.117 0-.233-.041-.325-.12l-3.175-2.722-3.175 2.722c-.148.127-.356.156-.534.074-.177-.081-.291-.259-.291-.454v-9c0-.827.673-1.5 1.5-1.5h5c.827 0 1.5.673 1.5 1.5v9c0 .195-.114.373-.291.454-.067.031-.138.046-.209.046zm-3.5-4c.116 0 .232.04.325.12l2.675 2.293v-7.913c0-.275-.224-.5-.5-.5h-5c-.276 0-.5.225-.5.5v7.913l2.675-2.293c.093-.08.209-.12.325-.12z"/><path d="m11.5 30h-4c-.827 0-1.5-.673-1.5-1.5v-15c0-.827.673-1.5 1.5-1.5h4c.827 0 1.5.673 1.5 1.5v15c0 .827-.673 1.5-1.5 1.5zm-4-17c-.276 0-.5.225-.5.5v15c0 .275.224.5.5.5h4c.276 0 .5-.225.5-.5v-15c0-.275-.224-.5-.5-.5z"/><path d="m17.5 30h-4c-.827 0-1.5-.673-1.5-1.5v-21c0-.827.673-1.5 1.5-1.5h4c.827 0 1.5.673 1.5 1.5v21c0 .827-.673 1.5-1.5 1.5zm-4-23c-.276 0-.5.225-.5.5v21c0 .275.224.5.5.5h4c.276 0 .5-.225.5-.5v-21c0-.275-.224-.5-.5-.5z"/><path d="m23.5 30h-4c-.827 0-1.5-.673-1.5-1.5v-15c0-.827.673-1.5 1.5-1.5.276 0 .5.224.5.5s-.224.5-.5.5-.5.225-.5.5v15c0 .275.224.5.5.5h4c.276 0 .5-.225.5-.5v-10c0-.276.224-.5.5-.5s.5.224.5.5v10c0 .827-.673 1.5-1.5 1.5z"/><path d="m12.5 26h-6c-.276 0-.5-.224-.5-.5s.224-.5.5-.5h6c.276 0 .5.224.5.5s-.224.5-.5.5z"/><path d="m12.5 23h-6c-.276 0-.5-.224-.5-.5s.224-.5.5-.5h6c.276 0 .5.224.5.5s-.224.5-.5.5z"/><path d="m24.5 23h-6c-.276 0-.5-.224-.5-.5s.224-.5.5-.5h6c.276 0 .5.224.5.5s-.224.5-.5.5z"/><path d="m15.5 26c-.276 0-.5-.224-.5-.5v-16c0-.276.224-.5.5-.5s.5.224.5.5v16c0 .276-.224.5-.5.5z"/><path d="m24.5 26h-6c-.276 0-.5-.224-.5-.5s.224-.5.5-.5h6c.276 0 .5.224.5.5s-.224.5-.5.5z"/></svg>