<svg enable-background="new 0 0 36 36" height="512" viewBox="0 0 36 36" width="512" xmlns="http://www.w3.org/2000/svg"><g id="BG"><g><path d="m34.904 20.355c-3.782-5.791-3.38-11.727-5.203-14.518s-7.256-7.603-20.093.782-9.572 17.5-7.566 20.569c9.388 14.372 39.561 3.423 32.862-6.833z" fill="#efefef"/></g></g><g id="effect"><g><g><path d="m6.533 6.84h2v1h-2z" fill="#a4afc1" transform="matrix(.707 -.707 .707 .707 -2.984 7.477)"/></g><g><path d="m2.467 10.906h2v1h-2z" fill="#a4afc1" transform="matrix(.707 -.707 .707 .707 -7.05 5.792)"/></g><g><path d="m2.967 6.164h1v2h-1z" fill="#a4afc1" transform="matrix(.707 -.707 .707 .707 -4.05 4.55)"/></g></g><g><path d="m26.25 6.5c-.827 0-1.5-.673-1.5-1.5s.673-1.5 1.5-1.5 1.5.673 1.5 1.5-.673 1.5-1.5 1.5zm0-2c-.275 0-.5.224-.5.5s.225.5.5.5.5-.224.5-.5-.225-.5-.5-.5z" fill="#a4afc1"/></g></g><g id="color"><g><path d="m28.25 17.3h-20.5c-.552 0-1-.448-1-1v-3.5c0-.552.448-1 1-1h20.5c.552 0 1 .448 1 1v3.5c0 .552-.448 1-1 1z" fill="#2fdf84"/></g><g><path d="m8.75 17.281v10.019c0 1.1.9 2 2 2h14.5c1.1 0 2-.9 2-2v-10.019z" fill="#f3f3f1"/></g><g><path d="m16.494 7.231c.741.742 1.506 4.194 1.506 4.194s-3.452-.765-4.194-1.506c-.742-.742-.742-1.945 0-2.687.742-.743 1.946-.743 2.688-.001z" fill="#2fdf84"/></g><g><path d="m19.506 7.231c-.741.742-1.506 4.194-1.506 4.194s3.452-.765 4.194-1.506c.742-.742.742-1.945 0-2.687-.742-.743-1.946-.743-2.688-.001z" fill="#2fdf84"/></g><g><path d="m15.75 17.3v8l2.25-1.5 2.25 1.5v-8.019z" fill="#2fdf84"/></g><g><path d="m9 16.3v-3.5c0-.552.448-1 1-1h-2.25c-.552 0-1 .448-1 1v3.5c0 .552.448 1 1 1h2.25c-.552 0-1-.448-1-1z" fill="#00b871"/></g><g><path d="m11 27.3v-10.019h-2.25v10.019c0 1.1.9 2 2 2h2.25c-1.1 0-2-.9-2-2z" fill="#d5dbe1"/></g><g><path d="m16.057 9.918c-.742-.742-.742-1.945 0-2.687.068-.068.143-.123.219-.179-.744-.55-1.794-.495-2.469.179-.742.742-.742 1.945 0 2.687s4.193 1.507 4.193 1.507-.059-.266-.159-.661c-.765-.252-1.489-.55-1.784-.846z" fill="#00b871"/></g><g><path d="m21.756 7.231c.068-.068.143-.123.219-.179-.744-.55-1.794-.495-2.469.179-.741.742-1.506 4.194-1.506 4.194s1.251-.278 2.409-.661c.262-1.038.81-2.995 1.347-3.533z" fill="#00b871"/></g><g><g><path d="m18 17.3 2.25-.009v-.01l-4.5.019v8l2.25-1.5z" fill="#00b871"/></g><g><path d="m20.25 25.3v-1.5l-1.125.75z" fill="#00b871"/></g></g></g><g id="_x31_.5"><g><path d="m28.25 18.05h-20.5c-.965 0-1.75-.785-1.75-1.75v-3.5c0-.965.785-1.75 1.75-1.75h20.5c.965 0 1.75.785 1.75 1.75v3.5c0 .965-.785 1.75-1.75 1.75zm-20.5-5.5c-.138 0-.25.112-.25.25v3.5c0 .138.112.25.25.25h20.5c.138 0 .25-.112.25-.25v-3.5c0-.138-.112-.25-.25-.25z"/></g><g><path d="m25.25 30.05h-14.5c-1.517 0-2.75-1.234-2.75-2.75v-9.75h1.5v9.75c0 .689.561 1.25 1.25 1.25h14.5c.689 0 1.25-.561 1.25-1.25v-9.75h1.5v9.75c0 1.516-1.233 2.75-2.75 2.75z"/></g><g><path d="m18 12.175c-.054 0-.108-.006-.162-.018-.859-.19-3.729-.876-4.562-1.708-.501-.5-.776-1.166-.776-1.874s.275-1.374.776-1.874c1.002-1.001 2.747-1.001 3.747 0 .832.833 1.519 3.701 1.709 4.561.056.25-.021.511-.202.692-.142.143-.334.221-.53.221zm-2.85-4.75c-.308 0-.596.12-.813.337s-.337.506-.337.813.12.596.337.813c.265.264 1.415.674 2.635 1.008-.334-1.22-.744-2.37-1.009-2.635-.217-.217-.506-.336-.813-.336z"/></g><g><path d="m18 12.175c-.196 0-.388-.078-.53-.22-.182-.181-.258-.442-.202-.692.19-.86.877-3.729 1.709-4.561 1-1.001 2.745-1.001 3.747 0 .501.5.776 1.166.776 1.874s-.275 1.373-.776 1.874c-.832.832-3.702 1.518-4.562 1.708-.054.011-.108.017-.162.017zm2.85-4.75c-.307 0-.596.12-.812.336-.265.265-.675 1.415-1.009 2.635 1.22-.334 2.37-.745 2.635-1.009.216-.216.336-.505.336-.812s-.12-.596-.337-.813c-.218-.218-.506-.337-.813-.337z"/></g><g><path d="m20.25 26.05c-.146 0-.29-.042-.416-.126l-1.834-1.223-1.834 1.223c-.229.153-.527.167-.77.037-.244-.13-.396-.385-.396-.661v-7.75h1.5v6.349l1.084-.723c.252-.168.58-.168.832 0l1.084.723v-6.349h1.5v7.75c0 .276-.152.531-.396.661-.111.06-.233.089-.354.089z"/></g></g></svg>