<svg enable-background="new 0 0 36 36" height="512" viewBox="0 0 36 36" width="512" xmlns="http://www.w3.org/2000/svg"><path d="m26.982 3.914c-6.916.129-11.732-3.365-15.065-3.302s-10.296 2.109-10.009 17.44 9.744 17.404 13.41 17.336c17.164-.321 23.911-31.703 11.664-31.474z" fill="#efefef"/><path d="m18.268 17.166-.261-.166v12.25l8.242-1v-6h-4.751z" fill="#f3f3f1"/><path d="m18.003 16.75 3.495 5.5h6.752l-2.001-4.5z" fill="#2fdf84"/><path d="m17.987 16.751v-.001l-.001.001z" fill="#f3f3f1"/><path d="m14.502 22.25h-4.758v6l8.243 1v-12.484z" fill="#f3f3f1"/><path d="m17.997 16.75-3.495 5.5h-6.752l2.001-4.5z" fill="#2fdf84"/><path d="m20.257 20.297-1.989-3.131-.261-.166v12.25l2.25-.273z" fill="#d5dbe1"/><path d="m18.003 16.75 3.495 5.5h2.25l-3.307-5.204z" fill="#00b871"/><path d="m17.809 17.046.188-.296-8.246 1-2.001 4.5h2.25l2.001-4.5z" fill="#00b871"/><path d="m11.994 28.25v-6h-2.25v6l8.243 1v-.273z" fill="#d5dbe1"/><path d="m17.987 20.307v-3.541l-3.485 5.484h2.25z" fill="#d5dbe1"/><g fill="#a4afc1"><path d="m30.25 27.483c-.827 0-1.5-.673-1.5-1.5s.673-1.5 1.5-1.5 1.5.673 1.5 1.5-.673 1.5-1.5 1.5zm0-2c-.275 0-.5.225-.5.5s.225.5.5.5.5-.225.5-.5-.225-.5-.5-.5z"/><path d="m4.93 10h1v2h-1z"/><path d="m4.93 15.75h1v2h-1z"/><path d="m1.43 13.25h2v1h-2z"/><path d="m7.18 13.25h2v1h-2z"/></g><path d="m17.987 30c-.03 0-.061-.002-.09-.006l-8.243-1c-.377-.045-.66-.365-.66-.744v-6h1.5v5.336l6.743.817v-11.653h.74l-.506-.545c.221-.2.543-.258.813-.136.271.12.452.384.452.681v12.5c0 .215-.092.419-.253.562-.136.122-.313.188-.496.188z"/><path d="m18.007 30c-.183 0-.359-.066-.497-.188-.161-.143-.253-.347-.253-.562v-12.25h1.5v11.403l6.742-.817v-5.336h1.5v6c0 .379-.283.699-.659.744l-8.242 1c-.031.004-.061.006-.091.006z"/><path d="m28.25 23h-6.753c-.257 0-.495-.131-.633-.348l-3.494-5.5c-.155-.245-.156-.558-.002-.803.155-.244.44-.377.725-.344l8.246 1c.263.031.488.198.596.439l2.001 4.5c.103.232.082.5-.057.713s-.375.343-.629.343zm-6.341-1.5h5.187l-1.359-3.057-6.251-.758z"/><path d="m14.503 23h-6.753c-.254 0-.49-.129-.629-.342s-.159-.48-.057-.713l2.001-4.5c.107-.241.333-.408.596-.439l8.246-1c.288-.034.569.1.725.344.154.245.153.558-.002.803l-3.494 5.5c-.138.216-.376.347-.633.347zm-5.599-1.5h5.187l2.424-3.814-6.251.758z"/><path d="m17.25 6.75h1.5v6.5h-1.5z"/><path d="m20.793 9.845-2.793-2.149-2.793 2.148-.914-1.189 3.25-2.5c.27-.207.645-.207.914 0l3.25 2.5z"/></svg>