<svg id="Line" height="512" viewBox="0 0 36 36" width="512" xmlns="http://www.w3.org/2000/svg"><path d="m34.904 20.355c-3.782-5.791-3.38-11.727-5.203-14.518s-7.256-7.603-20.093.782-9.572 17.5-7.566 20.569c9.388 14.372 39.561 3.423 32.862-6.833z" fill="#efefef"/><path d="m30.594 1.62h1v2h-1z" fill="#a4afc1"/><path d="m33.094 5.12h2v1h-2z" fill="#a4afc1"/><path d="m25.295 10.75h-9.545l.955 4.5h7.636l1.909-7.5z" fill="#2fdf84"/><g fill="#f3f3f1"><path d="m6.75 18.75v8.5h2.75l2-7.386s-1.458-1.114-4.75-1.114z"/><path d="m11.13 22.696 4.37 1.804s2.75 1 4.75 1 4.5-1.5 6.5-1.5 2.5 1.25 2.5 1.25-7.25 4-10.25 4c-2.39 0-7.31-2.22-9.22-3.12z"/><path d="m11.27 20.71 9.63 1.97c.93.19 1.6 1.01 1.6 1.96v.45s-3.348 2.353-11.57-2.394z"/></g><path d="m8.5 18.86v8.39h-1.75v-8.5c.66 0 1.24.04 1.75.11z" fill="#d5dbe1"/><path d="m29.25 25.25s-7.25 4-10.25 4c-2.39 0-7.31-2.22-9.22-3.12l.58-1.48c2.19 1.01 6.46 2.85 8.64 2.85 2.21 0 6.74-2.18 8.96-3.32 1 .35 1.29 1.07 1.29 1.07z" fill="#d5dbe1"/><path d="m17.75 10.75.95 4.5h-2l-.95-4.5z" fill="#00b871"/><path d="m9.5 28h-2.75c-.414 0-.75-.336-.75-.75v-9c0-.414.336-.75.75-.75 3.505 0 5.138 1.216 5.205 1.268.239.183.346.49.272.781l-2 7.886c-.084.332-.384.565-.727.565zm-2-1.5h1.417l1.716-6.768c-.521-.247-1.546-.619-3.133-.711z"/><path d="m18.75 30c-2.345 0-6.181-1.829-8.472-2.922l-.568-.27.64-1.357.574.273c2.034.97 5.82 2.775 7.826 2.775 2.072 0 6.959-2.277 9.413-3.529-.269-.239-.71-.471-1.413-.471-.884 0-2.036.364-3.149.715-1.222.387-2.485.786-3.601.786-2.108 0-4.889-1.002-5.006-1.045l.512-1.41c.026.01 2.652.955 4.494.955.884 0 2.036-.364 3.149-.715 1.222-.386 2.485-.785 3.601-.785 2.512 0 3.184 1.931 3.211 2.013.116.347-.036.727-.358.899-.313.167-7.702 4.088-10.853 4.088z"/><path d="m23.25 24.59h-1.5c0-.572-.399-1.081-.95-1.209l-9.656-2.332.353-1.458 9.65 2.33c1.236.288 2.103 1.386 2.103 2.669z"/><path d="m24.341 16h-7.636c-.354 0-.66-.248-.734-.594l-.955-4.5c-.047-.221.009-.452.151-.628.143-.176.357-.278.583-.278h9.153l.62-2.435 1.454.37-1.909 7.5c-.085.333-.384.565-.727.565zm-7.029-1.5h6.446l.764-3h-7.846z"/><path d="m19 19c-.551 0-1-.448-1-1s.449-1 1-1 1 .448 1 1-.449 1-1 1z"/><path d="m23 19c-.551 0-1-.448-1-1s.449-1 1-1 1 .448 1 1-.449 1-1 1z"/></svg>