<svg id="_x31__x2C_5" enable-background="new 0 0 36 36" height="512" viewBox="0 0 36 36" width="512" xmlns="http://www.w3.org/2000/svg"><path d="m27.623 4.167c-6.917 0-11.667-3.583-15-3.583s-10.333 1.916-10.333 17.249 9.417 17.583 13.083 17.583c17.167.001 24.5-31.249 12.25-31.249z" fill="#efefef"/><g fill="#a4afc1"><path d="m3.967 6.283h2v1h-2z" transform="matrix(.707 -.707 .707 .707 -3.342 5.499)"/><path d="m8.033 2.217h2v1h-2z" transform="matrix(.707 -.707 .707 .707 .725 7.183)"/><path d="m4.467 1.894h1v2h-1z" transform="matrix(.707 -.707 .707 .707 -.591 4.36)"/></g><path d="m11.75 6.75h16.5c.552 0 1 .448 1 1v11.5c0 .552-.448 1-1 1h-16.5c-.552 0-1-.448-1-1v-11.5c0-.552.448-1 1-1z" fill="#f3f3f1"/><circle cx="11" cy="9" fill="#2fdf84" r="2.25"/><path d="m6.75 16.75c0-1.657 1.343-3 3-3h2.5c1.657 0 3 1.343 3 3v3.882c0 .379-.214.725-.553.894l-.894.447c-.339.169-.553.516-.553.894v5.382c0 .552-.448 1-1 1h-2.5c-.552 0-1-.448-1-1v-5.382c0-.379-.214-.725-.553-.894l-.894-.447c-.339-.169-.553-.516-.553-.894z" fill="#2fdf84"/><path d="m11 9c0-.831.455-1.548 1.125-1.938-.332-.193-.713-.312-1.125-.312-1.243 0-2.25 1.007-2.25 2.25s1.007 2.25 2.25 2.25c.412 0 .793-.119 1.125-.312-.67-.39-1.125-1.107-1.125-1.938z" fill="#00b871"/><path d="m11 28.25v-5.382c0-.379-.214-.725-.553-.894l-.894-.447c-.339-.17-.553-.516-.553-.895v-3.882c0-1.657 1.343-3 3-3h-2.25c-1.657 0-3 1.343-3 3v3.882c0 .379.214.725.553.894l.894.447c.339.169.553.516.553.894v5.382c0 .552.448 1 1 1h2.25c-.552.001-1-.447-1-.999z" fill="#00b871"/><path d="m13 10.03v3.82c-.24-.07-.49-.1-.75-.1h-1.5v-2.51c.08.01.17.01.25.01.87 0 1.62-.49 2-1.22z" fill="#d5dbe1"/><path d="m11.45 6.8c.09-.03.2-.05.3-.05h2.25c-.55 0-1 .45-1 1v.22c-.31-.6-.87-1.04-1.55-1.17z" fill="#d5dbe1"/><path d="m11 12c-1.654 0-3-1.346-3-3s1.346-3 3-3 3 1.346 3 3-1.346 3-3 3zm0-4.5c-.827 0-1.5.673-1.5 1.5s.673 1.5 1.5 1.5 1.5-.673 1.5-1.5-.673-1.5-1.5-1.5z"/><path d="m12.25 30h-2.5c-.965 0-1.75-.785-1.75-1.75v-5.382c0-.095-.053-.181-.138-.224l-.895-.447c-.596-.298-.967-.898-.967-1.565v-3.882c0-2.068 1.682-3.75 3.75-3.75h2.5c2.068 0 3.75 1.682 3.75 3.75v3.882c0 .667-.371 1.267-.967 1.565l-.895.447c-.085.043-.138.129-.138.224v5.382c0 .965-.785 1.75-1.75 1.75zm-2.5-15.5c-1.241 0-2.25 1.009-2.25 2.25v3.882c0 .095.053.181.138.224l.895.447c.596.298.967.898.967 1.565v5.382c0 .138.112.25.25.25h2.5c.138 0 .25-.112.25-.25v-5.382c0-.667.371-1.267.967-1.565l.895-.447c.085-.042.138-.128.138-.224v-3.882c0-1.241-1.009-2.25-2.25-2.25z"/><path d="m22 16c-.192 0-.384-.073-.53-.22l-1.97-1.97-.75.75-1.061-1.06 1.28-1.28c.293-.293.768-.293 1.061 0l1.985 1.985 4.267-4.015 1.028 1.092-4.796 4.514c-.144.136-.329.204-.514.204z"/><path d="m28.25 21h-10.25v-1.5h10.25c.138 0 .25-.112.25-.25v-11.5c0-.138-.112-.25-.25-.25h-12.25v-1.5h12.25c.965 0 1.75.785 1.75 1.75v11.5c0 .965-.785 1.75-1.75 1.75z"/><path d="m23.141 25.305-3.141-3.866-3.141 3.866-1.165-.946 3.723-4.583c.285-.351.879-.351 1.164 0l3.723 4.583z"/><path d="m2 28.5h32v1.5h-32z"/></svg>