<svg id="LINE" enable-background="new 0 0 36 36" height="512" viewBox="0 0 36 36" width="512" xmlns="http://www.w3.org/2000/svg"><path d="m8.114 5.564c-1.805 6.677-6.504 10.327-7.374 13.545s-.847 10.475 13.955 14.477 19.432-4.501 20.388-8.041c4.481-16.572-23.772-31.807-26.969-19.981z" fill="#efefef"/><g fill="#a4afc1"><path d="m24.846 31.437h2v1h-2z" transform="matrix(.707 -.707 .707 .707 -15.013 27.63)"/><path d="m28.912 27.371h2v1h-2z" transform="matrix(.707 -.707 .707 .707 -10.947 29.314)"/><path d="m29.412 31.113h1v2h-1z" transform="matrix(.707 -.707 .707 .707 -13.947 30.557)"/><path d="m4.297 14.688c-.827 0-1.5-.673-1.5-1.5s.673-1.5 1.5-1.5 1.5.673 1.5 1.5-.672 1.5-1.5 1.5zm0-2c-.276 0-.5.225-.5.5s.224.5.5.5.5-.225.5-.5-.224-.5-.5-.5z"/></g><circle cx="21.5" cy="21" fill="#f3f3f1" r="2.25"/><path d="m16.75 29.25v-1.5c0-1.105.895-2 2-2h5.5c1.105 0 2 .895 2 2v1.5z" fill="#2fdf84"/><path d="m9.75 29.25v-22.5z" fill="#2fdf84"/><path d="m22.25 6.75h-12.5v8.5h12.5l-3-4.25z" fill="#2fdf84"/><path d="m21.25 21c0-.882.512-1.637 1.25-2.006-.302-.151-.639-.244-1-.244-1.243 0-2.25 1.007-2.25 2.25s1.007 2.25 2.25 2.25c.361 0 .698-.093 1-.244-.738-.369-1.25-1.125-1.25-2.006z" fill="#d5dbe1"/><path d="m9.75 6.75h2v8.5h-2z" fill="#00b871"/><path d="m20.75 25.75h-2c-1.105 0-2 .895-2 2v1.5h2v-1.5c0-1.105.895-2 2-2z" fill="#00b871"/><path d="m21.5 24c-1.654 0-3-1.346-3-3s1.346-3 3-3 3 1.346 3 3-1.346 3-3 3zm0-4.5c-.827 0-1.5.673-1.5 1.5s.673 1.5 1.5 1.5 1.5-.673 1.5-1.5-.673-1.5-1.5-1.5z"/><path d="m27 29.25h-1.5v-1.5c0-.689-.561-1.25-1.25-1.25h-5.5c-.689 0-1.25.561-1.25 1.25v1.5h-1.5v-1.5c0-1.517 1.233-2.75 2.75-2.75h5.5c1.517 0 2.75 1.233 2.75 2.75z"/><path d="m9 6.75h1.5v22.5h-1.5z"/><path d="m22.25 16h-12.5c-.414 0-.75-.336-.75-.75v-8.5c0-.414.336-.75.75-.75h5.536v1.5h-4.786v7h10.303l-2.166-3.067c-.183-.26-.183-.605 0-.865l2.166-3.068h-2.803v-1.5h4.25c.28 0 .537.156.666.405.129.248.108.548-.053.777l-2.695 3.818 2.695 3.817c.162.229.182.529.053.777-.129.25-.386.406-.666.406z"/></svg>