<svg enable-background="new 0 0 36 36" height="512" viewBox="0 0 36 36" width="512" xmlns="http://www.w3.org/2000/svg"><g id="Layer_2"><g><path d="m34.928 20.389c-3.693-5.848-3.199-11.778-4.979-14.596s-7.138-7.715-20.103.472-9.84 17.35-7.882 20.45c9.166 14.516 39.504 4.031 32.964-6.326z" fill="#efefef"/></g></g><g id="color"><g><circle cx="23" cy="13" fill="#2fdf84" r="6.25"/></g><g><path d="m19 13c0-3.067 2.211-5.613 5.125-6.144-.365-.066-.74-.106-1.125-.106-3.452 0-6.25 2.798-6.25 6.25s2.798 6.25 6.25 6.25c.385 0 .76-.04 1.125-.106-2.914-.531-5.125-3.077-5.125-6.144z" fill="#00b871"/></g><g><path d="m11.497 19.867-.23.84-1.47 5.43-.3 1.11h-2.75v-8.5c3.3 0 4.75 1.12 4.75 1.12z" fill="#2fdf84"/></g><g><path d="m6.747 18.747v8.5h2.25v-8.3c-.626-.118-1.367-.2-2.25-.2z" fill="#00b871"/></g><g><path d="m29.247 25.247s-7.25 4-10.25 4c-2.38 0-7.28-2.21-9.2-3.11l1.47-5.43 9.63 1.97c.93.19 1.6 1.01 1.6 1.96v.44c1.44-.45 2.95-1.08 4.25-1.08 2 0 2.5 1.25 2.5 1.25z" fill="#f3f3f1"/></g><g><g><path d="m12.047 26.637 1.47-5.43 7.745 1.584c-.117-.048-.238-.088-.365-.114l-9.63-1.97-1.47 5.43c1.789.839 6.164 2.813 8.678 3.078-2.357-.712-5.103-1.957-6.428-2.578z" fill="#d5dbe1"/></g></g><g><path d="m9.797 26.886-.534-.217.514-.527v-.765l.534.217-.514.528z"/></g><g><path d="m21.747 25.087v-.01h1.5z"/></g><g><g><path d="m8.875 7.375h2v1h-2z" fill="#a4afc1"/></g><g><path d="m3.125 7.375h2v1h-2z" fill="#a4afc1"/></g><g><path d="m6.625 3.875h1v2h-1z" fill="#a4afc1"/></g><g><path d="m6.625 9.625h1v2h-1z" fill="#a4afc1"/></g></g></g><g id="line"><g><path d="m23 20c-3.86 0-7-3.141-7-7s3.14-7 7-7 7 3.141 7 7-3.14 7-7 7zm0-12.5c-3.033 0-5.5 2.468-5.5 5.5s2.467 5.5 5.5 5.5 5.5-2.468 5.5-5.5-2.467-5.5-5.5-5.5z"/></g><g><g><path d="m23.38 16.5h-2.13v-1.5h2.13c.342 0 .62-.278.62-.62 0-.352-.278-.63-.62-.63h-.76c-1.169 0-2.12-.951-2.12-2.12 0-1.179.951-2.13 2.12-2.13h2.13v1.5h-2.13c-.342 0-.62.278-.62.62 0 .352.278.63.62.63h.76c1.169 0 2.12.951 2.12 2.12 0 1.179-.951 2.13-2.12 2.13z"/></g><g><path d="m22.25 8.75h1.5v1.5h-1.5z"/></g><g><path d="m22.25 15.75h1.5v1.5h-1.5z"/></g></g><g><path d="m9.5 28h-2.75c-.414 0-.75-.336-.75-.75v-8.5c0-.414.336-.75.75-.75 3.505 0 5.138 1.217 5.205 1.269.242.185.349.498.269.792l-2 7.386c-.089.326-.385.553-.724.553zm-2-1.5h1.426l1.698-6.271c-.523-.247-1.546-.615-3.125-.707v6.978z"/></g><g><path d="m19 30c-2.409 0-7.011-2-9.54-3.191l.64-1.357c4.11 1.938 7.354 3.049 8.9 3.049 2.028 0 6.632-2.19 9.044-3.454-.278-.159-.692-.296-1.294-.296-.878 0-1.963.361-3.013.712-1.163.388-2.366.788-3.487.788-2.108 0-4.889-1.003-5.006-1.045l.512-1.41c.026.01 2.652.955 4.494.955.878 0 1.963-.361 3.013-.712 1.163-.388 2.366-.788 3.487-.788 2.479 0 3.168 1.651 3.196 1.722.141.352-.002.752-.334.935-.302.166-7.455 4.092-10.612 4.092z"/></g><g><path d="m23.25 25.09h-1.5v-.45c0-.592-.42-1.107-1-1.225l-9.63-1.972.301-1.469 9.63 1.971c1.274.259 2.2 1.393 2.2 2.694v.451z"/></g></g></svg>