<svg id="LINE" enable-background="new 0 0 36 36" height="512" viewBox="0 0 36 36" width="512" xmlns="http://www.w3.org/2000/svg"><path d="m34.904 20.355c-3.782-5.791-3.38-11.727-5.203-14.518s-7.256-7.603-20.093.782-9.572 17.5-7.566 20.569c9.388 14.372 39.561 3.423 32.862-6.833z" fill="#efefef"/><g fill="#a4afc1"><path d="m5.472 31.961c-.827 0-1.5-.673-1.5-1.5s.673-1.5 1.5-1.5 1.5.673 1.5 1.5-.673 1.5-1.5 1.5zm0-2c-.276 0-.5.224-.5.5s.224.5.5.5.5-.224.5-.5-.224-.5-.5-.5z"/><path d="m29.153 3h1v2h-1z"/><path d="m29.153 8.75h1v2h-1z"/><path d="m25.653 6.25h2v1h-2z"/><path d="m31.403 6.25h2v1h-2z"/></g><path d="m6.75 15.5 11.25 3.75 11.25-3.75z" fill="#2fdf84"/><path d="m27.25 27.25h-18.5c-1.105 0-2-.895-2-2v-11.5c0-1.105.895-2 2-2h18.5c1.105 0 2 .895 2 2v11.5c0 1.105-.895 2-2 2z" fill="#2fdf84"/><path d="m14.75 11.75v-2c0-.552.448-1 1-1h4.5c.552 0 1 .448 1 1v2z" fill="#f3f3f1"/><path d="m18 20c-.08 0-.16-.013-.237-.039l-11.25-3.75.475-1.423 11.012 3.671 11.013-3.671.475 1.423-11.25 3.75c-.078.026-.158.039-.238.039z"/><path d="m27.25 28h-18.5c-1.517 0-2.75-1.233-2.75-2.75v-11.5c0-1.517 1.233-2.75 2.75-2.75h18.5c1.517 0 2.75 1.233 2.75 2.75v5.75h-1.5v-5.75c0-.689-.561-1.25-1.25-1.25h-18.5c-.689 0-1.25.561-1.25 1.25v11.5c0 .689.561 1.25 1.25 1.25h18.5c.689 0 1.25-.561 1.25-1.25v-3.155h1.5v3.155c0 1.517-1.233 2.75-2.75 2.75z"/><path d="m22 11.75h-1.5v-2c0-.138-.112-.25-.25-.25h-4.5c-.138 0-.25.112-.25.25v2h-1.5v-2c0-.965.785-1.75 1.75-1.75h4.5c.965 0 1.75.785 1.75 1.75z"/></svg>