<svg id="_x31__x2C_5" enable-background="new 0 0 36 36" height="512" viewBox="0 0 36 36" width="512" xmlns="http://www.w3.org/2000/svg"><path d="m8.377 31.833c6.917 0 11.667 3.583 15 3.583s10.333-1.916 10.333-17.249-9.417-17.584-13.083-17.584c-17.167 0-24.5 31.25-12.25 31.25z" fill="#efefef"/><g fill="#a4afc1"><path d="m7.033 2.467h2v1h-2z" transform="matrix(.707 -.707 .707 .707 .255 6.549)"/><path d="m2.967 6.533h2v1h-2z" transform="matrix(.707 -.707 .707 .707 -3.811 4.865)"/><path d="m3.644 1.967h1v2h-1z" transform="matrix(.707 -.707 .707 .707 -.884 3.799)"/></g><path d="m24.25 10.75h5v-1.5c0-1.381-1.119-2.5-2.5-2.5-1.381 0-2.5 1.119-2.5 2.5z" fill="#2fdf84"/><path d="m24.25 25.54v-16.29c0-1.381 1.119-2.5 2.5-2.5h-15c-1.657 0-3 1.343-3 3v15.792z" fill="#f3f3f1"/><circle cx="23.5" cy="23.5" fill="#2fdf84" r="5.75"/><path d="m24.5 24.25-17.75.04v2.96c0 1.1.9 2 2 2h15.75z" fill="#2fdf84"/><path d="m27.875 7.029c-.34-.172-.718-.279-1.125-.279-1.381 0-2.5 1.119-2.5 2.5v1.5h2.25v-1.5c0-.974.562-1.808 1.375-2.221z" fill="#00b871"/><path d="m20 23.5c0-2.79 1.988-5.115 4.625-5.638-.364-.072-.74-.112-1.125-.112-3.176 0-5.75 2.574-5.75 5.75s2.574 5.75 5.75 5.75c.385 0 .761-.039 1.125-.112-2.637-.523-4.625-2.848-4.625-5.638z" fill="#00b871"/><path d="m9 27.25v-2.96l15.5-.035v-.005l-17.75.04v2.96c0 1.1.9 2 2 2h2.25c-1.1 0-2-.9-2-2z" fill="#00b871"/><path d="m11 9.75c0-1.657 1.343-3 3-3h-2.25c-1.657 0-3 1.343-3 3v14.542h2.25z" fill="#d5dbe1"/><path d="m23.5 30c-3.584 0-6.5-2.916-6.5-6.5s2.916-6.5 6.5-6.5 6.5 2.916 6.5 6.5-2.916 6.5-6.5 6.5zm0-11.5c-2.757 0-5 2.243-5 5s2.243 5 5 5 5-2.243 5-5-2.243-5-5-5z"/><path d="m25.427 26.481-2.396-1.917c-.178-.142-.281-.357-.281-.585v-3.354h1.5v2.994l2.115 1.692z"/><path d="m11.05 18.5h5.56v1.5h-5.56z"/><path d="m11.05 14.5h10.01v1.5h-10.01z"/><path d="m11.053 10.5h10.947v1.5h-10.947z"/><path d="m9.5 24.292h-1.5v-14.542c0-2.068 1.682-3.75 3.75-3.75h15v1.5h-15c-1.241 0-2.25 1.009-2.25 2.25z"/><path d="m29.25 11.5h-5c-.414 0-.75-.336-.75-.75v-1.5c0-1.792 1.458-3.25 3.25-3.25s3.25 1.458 3.25 3.25v1.5c0 .414-.336.75-.75.75zm-4.25-1.5h3.5v-.75c0-.965-.785-1.75-1.75-1.75s-1.75.785-1.75 1.75z"/><path d="m16.92 30h-8.17c-1.517 0-2.75-1.233-2.75-2.75v-2.96c0-.414.336-.75.75-.75h8.04v1.5h-7.29v2.21c0 .689.561 1.25 1.25 1.25h8.17z"/><path d="m23.5 10.75h1.5v4.04h-1.5z"/></svg>