<svg id="_x31__x2C_5" height="512" viewBox="0 0 36 36" width="512" xmlns="http://www.w3.org/2000/svg"><path d="m8.377 31.833c6.917 0 11.667 3.583 15 3.583s10.333-1.916 10.333-17.249-9.417-17.584-13.083-17.584c-17.167 0-24.5 31.25-12.25 31.25z" fill="#efefef"/><path d="m3.5 6c-.827 0-1.5-.673-1.5-1.5s.673-1.5 1.5-1.5 1.5.673 1.5 1.5-.673 1.5-1.5 1.5zm0-2c-.275 0-.5.225-.5.5s.225.5.5.5.5-.225.5-.5-.225-.5-.5-.5z" fill="#a4afc1"/><path d="m29.25 24.25v-12.5c0-1.105-.895-2-2-2h-18.5c-1.105 0-2 .895-2 2v12.5c0 1.105.895 2 2 2h18.5c1.105 0 2-.895 2-2z" fill="#f3f3f1"/><path d="m6.75 21.25h6.5c1.105 0 2-.895 2-2v-2.5c0-1.105-.895-2-2-2h-6.5z" fill="#2fdf84"/><path d="m24 29.25s5.25-2.321 5.25-6.964c0-1.857 0-3.679 0-3.679l-5.25-1.857-5.25 1.857v3.679c0 4.643 5.25 6.964 5.25 6.964z" fill="#2fdf84"/><path d="m9 24.25v-12.5c0-1.105.895-2 2-2h-2.25c-1.105 0-2 .895-2 2v12.5c0 1.105.895 2 2 2h2.25c-1.105 0-2-.895-2-2z" fill="#d5dbe1"/><path d="m6.75 14.75h2.25v6.5h-2.25z" fill="#00b871"/><path d="m21 22.286c0-2.786 0-3.679 0-3.679l4.125-1.459-1.125-.398-5.25 1.857v3.679c0 4.643 5.25 6.964 5.25 6.964s.471-.211 1.125-.623c-1.542-.971-4.125-3.082-4.125-6.341z" fill="#00b871"/><path d="m23.5 25c-.014 0-.026 0-.04-.001-.202-.011-.392-.103-.524-.255l-1.75-2 1.129-.988 1.243 1.421 2.684-2.478 1.018 1.102-3.25 3c-.14.129-.322.199-.51.199z"/><path d="m24 30c-.104 0-.207-.021-.304-.064-.232-.103-5.696-2.578-5.696-7.65v-3.679c0-.317.2-.601.5-.707l5.25-1.857c.162-.057.338-.057.5 0l5.25 1.857c.3.106.5.39.5.707v3.679c0 5.072-5.464 7.547-5.696 7.649-.097.044-.2.065-.304.065zm-4.5-10.862v3.148c0 3.494 3.442 5.571 4.499 6.127 1.056-.558 4.501-2.646 4.501-6.127v-3.148l-4.5-1.592z"/><path d="m15.5 27h-6.75c-1.517 0-2.75-1.233-2.75-2.75v-12.5c0-1.517 1.233-2.75 2.75-2.75h18.5c1.517 0 2.75 1.233 2.75 2.75v2.5h-1.5v-2.5c0-.689-.561-1.25-1.25-1.25h-18.5c-.689 0-1.25.561-1.25 1.25v12.5c0 .689.561 1.25 1.25 1.25h6.75z"/><path d="m13.25 22h-6.5c-.414 0-.75-.336-.75-.75v-6.5c0-.414.336-.75.75-.75h6.5c1.517 0 2.75 1.233 2.75 2.75v2.5c0 1.517-1.233 2.75-2.75 2.75zm-5.75-1.5h5.75c.689 0 1.25-.561 1.25-1.25v-2.5c0-.689-.561-1.25-1.25-1.25h-5.75z"/><circle cx="11" cy="18" r="1"/></svg>